<svg xmlns="http://www.w3.org/2000/svg" xmlns:xlink="http://www.w3.org/1999/xlink" width="500" zoomAndPan="magnify" viewBox="0 0 375 374.999991" height="500" preserveAspectRatio="xMidYMid meet" version="1.2"><defs><clipPath id="1ade74cd09"><path d="M 140 130.765625 L 213 130.765625 L 213 186 L 140 186 Z M 140 130.765625 "/></clipPath></defs><g id="7116f9a6c7"><rect x="0" width="375" y="0" height="374.999991" style="fill:#ffffff;fill-opacity:1;stroke:none;"/><rect x="0" width="375" y="0" height="374.999991" style="fill:#ffffff;fill-opacity:1;stroke:none;"/><g clip-rule="nonzero" clip-path="url(#1ade74cd09)"><path style=" stroke:none;fill-rule:nonzero;fill:#010768;fill-opacity:1;" d="M 157.273438 135.300781 L 140.027344 135.300781 C 140.027344 133.097656 141.828125 131.277344 144.070312 131.277344 L 158.085938 131.277344 C 159.988281 131.277344 161.613281 132.515625 162.039062 134.367188 L 167.402344 160.277344 C 167.492188 160.734375 167.898438 161.035156 168.355469 161.035156 L 205.773438 160.894531 C 207.714844 160.894531 209.496094 161.671875 210.804688 162.960938 C 212.089844 164.230469 212.921875 166.011719 212.9375 167.972656 L 212.9375 168.164062 C 213.007812 172.984375 208.84375 176.636719 203.9375 174.960938 C 197.8125 172.859375 186.570312 168.675781 163.539062 172.878906 C 176.933594 167.902344 191.300781 167.054688 204.800781 171.023438 C 207.238281 171.75 208.96875 170.691406 208.914062 168.21875 L 208.914062 168.023438 C 208.914062 167.175781 208.542969 166.402344 207.980469 165.835938 C 207.394531 165.269531 206.621094 164.9375 205.773438 164.9375 L 167.542969 165.078125 C 165.816406 165.078125 164.277344 163.929688 163.925781 162.21875 L 158.542969 136.308594 C 158.4375 135.707031 157.890625 135.300781 157.308594 135.300781 Z M 179.773438 150.605469 C 181.910156 150.691406 183.675781 150.726562 185.300781 150.726562 C 185.195312 149.808594 185.195312 148.855469 185.300781 147.851562 C 183.550781 147.691406 181.964844 147.390625 180.640625 146.96875 C 182.441406 147.058594 183.957031 147.09375 185.386719 147.09375 C 185.527344 146.175781 185.757812 145.222656 186.09375 144.304688 C 183.746094 144.003906 181.609375 143.421875 180.058594 142.769531 C 182.511719 143.296875 184.328125 143.542969 186.324219 143.6875 C 186.515625 143.191406 186.746094 142.699219 186.992188 142.222656 C 186.921875 142.75 186.851562 143.246094 186.800781 143.703125 C 188.015625 143.792969 189.324219 143.828125 190.910156 143.863281 C 191.160156 143.140625 191.421875 142.398438 191.777344 141.691406 C 191.671875 142.46875 191.601562 143.226562 191.496094 143.898438 C 192.304688 143.914062 193.1875 143.933594 194.175781 143.984375 C 193.292969 144.214844 192.375 144.355469 191.421875 144.445312 C 191.316406 145.363281 191.210938 146.175781 191.160156 146.949219 C 192.449219 146.863281 193.859375 146.757812 195.5 146.632812 C 195.730469 144.832031 196.242188 142.960938 197.070312 141.179688 C 196.789062 143.402344 196.578125 145.097656 196.453125 146.5625 C 197.566406 146.457031 198.785156 146.351562 200.125 146.261719 C 198.890625 146.632812 197.652344 146.96875 196.382812 147.234375 C 196.3125 148.273438 196.242188 149.210938 196.222656 150.144531 C 197.160156 150.074219 198.164062 149.988281 199.261719 149.917969 C 198.253906 150.214844 197.210938 150.5 196.207031 150.726562 C 196.207031 151.945312 196.242188 153.25 196.332031 154.839844 C 195.835938 153.746094 195.5 152.386719 195.359375 150.90625 C 193.878906 151.203125 192.394531 151.417969 190.910156 151.539062 C 190.929688 152.492188 190.964844 153.550781 191.035156 154.769531 C 190.613281 153.886719 190.292969 152.792969 190.136719 151.59375 C 188.777344 151.679688 187.433594 151.699219 186.164062 151.644531 C 186.164062 152.421875 186.199219 153.234375 186.269531 154.222656 C 185.898438 153.464844 185.582031 152.582031 185.421875 151.609375 C 183.289062 151.46875 181.363281 151.132812 179.792969 150.640625 Z M 190.929688 150.515625 C 192.234375 150.445312 193.664062 150.320312 195.324219 150.199219 C 195.269531 149.296875 195.289062 148.34375 195.394531 147.390625 C 193.929688 147.640625 192.464844 147.832031 191.054688 147.921875 C 190.984375 148.820312 190.945312 149.667969 190.929688 150.515625 Z M 186.359375 147.09375 C 187.648438 147.09375 188.863281 147.058594 190.171875 146.988281 C 190.292969 146.15625 190.453125 145.328125 190.699219 144.480469 C 189.375 144.570312 188.015625 144.496094 186.695312 144.355469 C 186.550781 145.398438 186.464844 146.28125 186.359375 147.074219 Z M 186.148438 150.726562 C 187.417969 150.691406 188.671875 150.65625 190.046875 150.585938 C 189.996094 149.738281 189.996094 148.875 190.046875 147.976562 C 188.757812 148.027344 187.46875 148.011719 186.269531 147.9375 C 186.183594 148.910156 186.128906 149.773438 186.128906 150.726562 Z M 190.984375 180.554688 C 190.984375 183.519531 193.382812 185.902344 196.367188 185.902344 C 199.347656 185.902344 201.714844 183.503906 201.714844 180.554688 C 201.714844 177.609375 199.3125 175.171875 196.367188 175.171875 C 193.417969 175.171875 190.984375 177.589844 190.984375 180.554688 Z M 177.109375 174.90625 C 174.144531 174.90625 171.746094 177.308594 171.746094 180.273438 C 171.746094 183.238281 174.164062 185.636719 177.109375 185.636719 C 180.058594 185.636719 182.476562 183.238281 182.476562 180.273438 C 182.476562 177.308594 180.058594 174.90625 177.109375 174.90625 Z M 206.125 159.09375 L 206.019531 156.976562 C 205.613281 148.558594 208.066406 142.203125 209.796875 137.667969 C 210.238281 136.554688 210.609375 135.566406 210.820312 134.914062 L 212.25 130.765625 L 208.15625 132.390625 C 199.242188 135.957031 187.664062 143.191406 172.308594 133.378906 C 183.445312 143.652344 193.472656 141.460938 205.507812 137.632812 C 203.867188 141.972656 201.960938 147.691406 201.941406 155.050781 L 169.148438 158.671875 Z M 206.125 159.09375 "/></g><g style="fill:#010068;fill-opacity:1;"><g transform="translate(109.62152, 218.065919)"><path style="stroke:none" d="M 15.921875 -16.609375 C 13.484375 -17.335938 11.695312 -17.703125 10.5625 -17.703125 C 9.4375 -17.703125 8.660156 -17.207031 8.234375 -16.21875 C 7.816406 -15.226562 7.609375 -13.660156 7.609375 -11.515625 C 7.609375 -9.367188 7.804688 -7.804688 8.203125 -6.828125 C 8.597656 -5.859375 9.40625 -5.375 10.625 -5.375 C 10.976562 -5.375 11.664062 -5.472656 12.6875 -5.671875 L 12.6875 -8.5625 L 10.96875 -8.5625 L 10.96875 -13.0625 L 18.234375 -13.0625 L 18.234375 0 L 13.75 0 L 13.140625 -1.21875 L 12.984375 -1.21875 C 12.554688 -0.863281 12.210938 -0.597656 11.953125 -0.421875 C 11.242188 0.109375 10.242188 0.375 8.953125 0.375 C 3.640625 0.375 0.984375 -3.632812 0.984375 -11.65625 C 0.984375 -15.664062 1.679688 -18.726562 3.078125 -20.84375 C 4.472656 -22.96875 6.820312 -24.03125 10.125 -24.03125 C 12.769531 -24.03125 15.039062 -23.625 16.9375 -22.8125 Z M 15.921875 -16.609375 "/></g></g><g style="fill:#010068;fill-opacity:1;"><g transform="translate(129.383072, 218.065919)"><path style="stroke:none" d="M 14.46875 0 L 1.671875 0 L 1.671875 -23.640625 L 14.84375 -23.640625 L 14.46875 -17.828125 L 8.1875 -17.828125 L 8.1875 -14.28125 L 13.625 -14.28125 L 13.625 -9.25 L 8.1875 -9.25 L 8.1875 -5.328125 L 14.84375 -5.328125 Z M 14.46875 0 "/></g></g><g style="fill:#010068;fill-opacity:1;"><g transform="translate(144.765851, 218.065919)"><path style="stroke:none" d="M 24.5625 0 L 18.578125 0 L 18.578125 -12.34375 L 18.234375 -12.34375 L 16 0 L 9.859375 0 L 7.734375 -12.34375 L 7.34375 -12.34375 L 7.34375 0 L 1.453125 0 L 2.25 -23.640625 L 10.8125 -23.640625 L 12.953125 -10.859375 L 13.25 -10.859375 L 15.3125 -23.640625 L 23.765625 -23.640625 Z M 24.5625 0 "/></g></g><g style="fill:#010068;fill-opacity:1;"><g transform="translate(170.771885, 218.065919)"><path style="stroke:none" d=""/></g></g><g style="fill:#f00480;fill-opacity:1;"><g transform="translate(178.783518, 218.065919)"><path style="stroke:none" d="M 0.609375 -16.53125 C 0.609375 -18.789062 1.265625 -20.601562 2.578125 -21.96875 C 3.898438 -23.34375 5.710938 -24.03125 8.015625 -24.03125 C 10.316406 -24.03125 12.671875 -23.800781 15.078125 -23.34375 L 14.3125 -17.25 C 11.800781 -17.832031 10.078125 -18.125 9.140625 -18.125 C 7.941406 -18.125 7.34375 -17.640625 7.34375 -16.671875 C 7.34375 -16.296875 7.628906 -15.929688 8.203125 -15.578125 C 8.773438 -15.222656 9.46875 -14.847656 10.28125 -14.453125 C 11.09375 -14.054688 11.90625 -13.582031 12.71875 -13.03125 C 13.53125 -12.488281 14.222656 -11.707031 14.796875 -10.6875 C 15.367188 -9.675781 15.65625 -8.515625 15.65625 -7.203125 C 15.65625 -4.785156 15.003906 -2.914062 13.703125 -1.59375 C 12.410156 -0.28125 10.578125 0.375 8.203125 0.375 C 5.828125 0.375 3.507812 0.0078125 1.25 -0.71875 L 1.671875 -6.390625 C 4.390625 -5.609375 6.28125 -5.21875 7.34375 -5.21875 C 8.414062 -5.21875 8.953125 -5.6875 8.953125 -6.625 C 8.953125 -7.101562 8.664062 -7.546875 8.09375 -7.953125 C 7.519531 -8.359375 6.828125 -8.765625 6.015625 -9.171875 C 5.203125 -9.578125 4.382812 -10.046875 3.5625 -10.578125 C 2.738281 -11.117188 2.039062 -11.894531 1.46875 -12.90625 C 0.894531 -13.925781 0.609375 -15.132812 0.609375 -16.53125 Z M 0.609375 -16.53125 "/></g></g><g style="fill:#f00480;fill-opacity:1;"><g transform="translate(195.042046, 218.065919)"><path style="stroke:none" d="M 15.421875 -17.890625 L 11 -17.890625 L 11 0 L 4.5 0 L 4.5 -17.890625 L -0.1875 -17.890625 L 0.1875 -23.640625 L 15.796875 -23.640625 Z M 15.421875 -17.890625 "/></g></g><g style="fill:#f00480;fill-opacity:1;"><g transform="translate(210.653283, 218.065919)"><path style="stroke:none" d="M 3.09375 -21.171875 C 4.5625 -23.078125 6.957031 -24.03125 10.28125 -24.03125 C 13.601562 -24.03125 15.984375 -23.085938 17.421875 -21.203125 C 18.859375 -19.328125 19.578125 -16.273438 19.578125 -12.046875 C 19.578125 -7.828125 18.835938 -4.703125 17.359375 -2.671875 C 15.890625 -0.640625 13.503906 0.375 10.203125 0.375 C 6.898438 0.375 4.523438 -0.625 3.078125 -2.625 C 1.628906 -4.632812 0.90625 -7.75 0.90625 -11.96875 C 0.90625 -16.195312 1.632812 -19.265625 3.09375 -21.171875 Z M 13.015625 -12.03125 C 13.015625 -14.363281 12.832031 -15.941406 12.46875 -16.765625 C 12.101562 -17.597656 11.351562 -18.015625 10.21875 -18.015625 C 9.09375 -18.015625 8.363281 -17.597656 8.03125 -16.765625 C 7.707031 -15.941406 7.546875 -14.378906 7.546875 -12.078125 L 7.546875 -11.15625 C 7.546875 -8.695312 7.726562 -7.078125 8.09375 -6.296875 C 8.457031 -5.523438 9.203125 -5.140625 10.328125 -5.140625 C 11.460938 -5.140625 12.191406 -5.503906 12.515625 -6.234375 C 12.847656 -6.972656 13.015625 -8.5 13.015625 -10.8125 Z M 13.015625 -12.03125 "/></g></g><g style="fill:#f00480;fill-opacity:1;"><g transform="translate(231.138273, 218.065919)"><path style="stroke:none" d="M 17.859375 -16.140625 C 17.859375 -14.722656 17.640625 -13.539062 17.203125 -12.59375 C 16.773438 -11.65625 16.101562 -10.804688 15.1875 -10.046875 L 18.359375 0 L 11.3125 0 L 8.953125 -8.53125 L 8.078125 -8.53125 L 8.078125 0 L 1.671875 0 L 1.671875 -23.640625 L 10.515625 -23.640625 C 13.046875 -23.640625 14.898438 -23.039062 16.078125 -21.84375 C 17.265625 -20.65625 17.859375 -18.753906 17.859375 -16.140625 Z M 9.0625 -12.53125 C 9.71875 -12.53125 10.1875 -12.71875 10.46875 -13.09375 C 10.75 -13.476562 10.890625 -14.171875 10.890625 -15.171875 C 10.890625 -16.171875 10.75 -16.867188 10.46875 -17.265625 C 10.1875 -17.660156 9.726562 -17.859375 9.09375 -17.859375 L 8.078125 -17.859375 L 8.078125 -12.53125 Z M 9.0625 -12.53125 "/></g></g><g style="fill:#f00480;fill-opacity:1;"><g transform="translate(249.947907, 218.065919)"><path style="stroke:none" d="M 14.46875 0 L 1.671875 0 L 1.671875 -23.640625 L 14.84375 -23.640625 L 14.46875 -17.828125 L 8.1875 -17.828125 L 8.1875 -14.28125 L 13.625 -14.28125 L 13.625 -9.25 L 8.1875 -9.25 L 8.1875 -5.328125 L 14.84375 -5.328125 Z M 14.46875 0 "/></g></g><g style="fill:#010768;fill-opacity:1;"><g transform="translate(139.157764, 239.391184)"><path style="stroke:none" d="M 2.453125 -4.796875 L 2.453125 -1.140625 L 7.65625 -1.140625 L 7.65625 0 L 1.140625 0 L 1.140625 -10.71875 L 7.5 -10.71875 L 7.5 -9.5625 L 2.453125 -9.5625 L 2.453125 -5.9375 L 7.265625 -5.9375 L 7.265625 -4.796875 Z M 2.453125 -4.796875 "/></g></g><g style="fill:#010768;fill-opacity:1;"><g transform="translate(147.836821, 239.391184)"><path style="stroke:none" d="M 3.828125 -4.4375 L 3.828125 -3.296875 L 0.53125 -3.296875 L 0.53125 -4.4375 Z M 3.828125 -4.4375 "/></g></g><g style="fill:#010768;fill-opacity:1;"><g transform="translate(152.428911, 239.391184)"><path style="stroke:none" d="M 9.5625 -3.046875 C 9.414062 -2.441406 9.203125 -1.9375 8.921875 -1.53125 C 8.648438 -1.125 8.328125 -0.796875 7.953125 -0.546875 C 7.585938 -0.296875 7.179688 -0.113281 6.734375 0 C 6.296875 0.101562 5.835938 0.15625 5.359375 0.15625 C 4.742188 0.15625 4.164062 0.0664062 3.625 -0.109375 C 3.082031 -0.285156 2.613281 -0.585938 2.21875 -1.015625 C 1.820312 -1.441406 1.503906 -2.003906 1.265625 -2.703125 C 1.035156 -3.410156 0.921875 -4.289062 0.921875 -5.34375 C 0.921875 -6.394531 1.035156 -7.269531 1.265625 -7.96875 C 1.503906 -8.675781 1.820312 -9.242188 2.21875 -9.671875 C 2.613281 -10.109375 3.082031 -10.414062 3.625 -10.59375 C 4.164062 -10.78125 4.742188 -10.875 5.359375 -10.875 C 5.828125 -10.875 6.269531 -10.820312 6.6875 -10.71875 C 7.113281 -10.625 7.503906 -10.460938 7.859375 -10.234375 C 8.222656 -10.003906 8.546875 -9.703125 8.828125 -9.328125 C 9.109375 -8.960938 9.332031 -8.503906 9.5 -7.953125 L 8.265625 -7.53125 C 8.148438 -7.957031 7.992188 -8.3125 7.796875 -8.59375 C 7.597656 -8.875 7.367188 -9.097656 7.109375 -9.265625 C 6.859375 -9.441406 6.582031 -9.5625 6.28125 -9.625 C 5.988281 -9.6875 5.679688 -9.71875 5.359375 -9.71875 C 4.929688 -9.71875 4.523438 -9.648438 4.140625 -9.515625 C 3.753906 -9.390625 3.414062 -9.15625 3.125 -8.8125 C 2.84375 -8.476562 2.617188 -8.03125 2.453125 -7.46875 C 2.296875 -6.90625 2.21875 -6.195312 2.21875 -5.34375 C 2.21875 -4.488281 2.296875 -3.78125 2.453125 -3.21875 C 2.617188 -2.65625 2.84375 -2.207031 3.125 -1.875 C 3.414062 -1.539062 3.753906 -1.3125 4.140625 -1.1875 C 4.523438 -1.0625 4.929688 -1 5.359375 -1 C 5.691406 -1 6.007812 -1.035156 6.3125 -1.109375 C 6.625 -1.179688 6.910156 -1.3125 7.171875 -1.5 C 7.429688 -1.6875 7.65625 -1.929688 7.84375 -2.234375 C 8.039062 -2.535156 8.195312 -2.925781 8.3125 -3.40625 Z M 9.5625 -3.046875 "/></g></g><g style="fill:#010768;fill-opacity:1;"><g transform="translate(162.990712, 239.391184)"><path style="stroke:none" d="M 5.359375 0.15625 C 4.691406 0.15625 4.082031 0.0664062 3.53125 -0.109375 C 2.988281 -0.285156 2.523438 -0.585938 2.140625 -1.015625 C 1.753906 -1.453125 1.453125 -2.019531 1.234375 -2.71875 C 1.023438 -3.425781 0.921875 -4.304688 0.921875 -5.359375 C 0.921875 -6.410156 1.023438 -7.285156 1.234375 -7.984375 C 1.453125 -8.691406 1.753906 -9.257812 2.140625 -9.6875 C 2.523438 -10.113281 2.988281 -10.414062 3.53125 -10.59375 C 4.082031 -10.78125 4.691406 -10.875 5.359375 -10.875 C 6.035156 -10.875 6.644531 -10.78125 7.1875 -10.59375 C 7.738281 -10.414062 8.207031 -10.113281 8.59375 -9.6875 C 8.976562 -9.257812 9.273438 -8.691406 9.484375 -7.984375 C 9.703125 -7.285156 9.8125 -6.410156 9.8125 -5.359375 C 9.8125 -4.304688 9.703125 -3.425781 9.484375 -2.71875 C 9.273438 -2.019531 8.976562 -1.453125 8.59375 -1.015625 C 8.207031 -0.585938 7.738281 -0.285156 7.1875 -0.109375 C 6.644531 0.0664062 6.035156 0.15625 5.359375 0.15625 Z M 5.359375 -1 C 5.835938 -1 6.269531 -1.0625 6.65625 -1.1875 C 7.050781 -1.320312 7.382812 -1.550781 7.65625 -1.875 C 7.925781 -2.207031 8.132812 -2.65625 8.28125 -3.21875 C 8.4375 -3.789062 8.515625 -4.503906 8.515625 -5.359375 C 8.515625 -6.210938 8.4375 -6.921875 8.28125 -7.484375 C 8.132812 -8.046875 7.925781 -8.492188 7.65625 -8.828125 C 7.382812 -9.160156 7.050781 -9.390625 6.65625 -9.515625 C 6.269531 -9.648438 5.835938 -9.71875 5.359375 -9.71875 C 4.890625 -9.71875 4.457031 -9.648438 4.0625 -9.515625 C 3.675781 -9.390625 3.347656 -9.160156 3.078125 -8.828125 C 2.804688 -8.492188 2.59375 -8.046875 2.4375 -7.484375 C 2.289062 -6.921875 2.21875 -6.210938 2.21875 -5.359375 C 2.21875 -4.503906 2.289062 -3.789062 2.4375 -3.21875 C 2.59375 -2.65625 2.804688 -2.207031 3.078125 -1.875 C 3.347656 -1.550781 3.675781 -1.320312 4.0625 -1.1875 C 4.457031 -1.0625 4.890625 -1 5.359375 -1 Z M 5.359375 -1 "/></g></g><g style="fill:#010768;fill-opacity:1;"><g transform="translate(173.950506, 239.391184)"><path style="stroke:none" d="M 2.875 -10.71875 L 6.171875 -2.09375 L 9.46875 -10.71875 L 10.796875 -10.71875 L 11.359375 0 L 10.0625 0 L 9.65625 -7.625 L 6.75 0 L 5.609375 0 L 2.671875 -7.625 L 2.296875 0 L 1 0 L 1.5625 -10.71875 Z M 2.875 -10.71875 "/></g></g><g style="fill:#010768;fill-opacity:1;"><g transform="translate(186.532833, 239.391184)"><path style="stroke:none" d="M 2.875 -10.71875 L 6.171875 -2.09375 L 9.46875 -10.71875 L 10.796875 -10.71875 L 11.359375 0 L 10.0625 0 L 9.65625 -7.625 L 6.75 0 L 5.609375 0 L 2.671875 -7.625 L 2.296875 0 L 1 0 L 1.5625 -10.71875 Z M 2.875 -10.71875 "/></g></g><g style="fill:#010768;fill-opacity:1;"><g transform="translate(199.11516, 239.391184)"><path style="stroke:none" d="M 2.453125 -4.796875 L 2.453125 -1.140625 L 7.65625 -1.140625 L 7.65625 0 L 1.140625 0 L 1.140625 -10.71875 L 7.5 -10.71875 L 7.5 -9.5625 L 2.453125 -9.5625 L 2.453125 -5.9375 L 7.265625 -5.9375 L 7.265625 -4.796875 Z M 2.453125 -4.796875 "/></g></g><g style="fill:#010768;fill-opacity:1;"><g transform="translate(207.794218, 239.391184)"><path style="stroke:none" d="M 7.84375 -7.734375 C 7.84375 -5.992188 7.039062 -4.988281 5.4375 -4.71875 L 8.1875 0 L 6.703125 0 L 4 -4.640625 L 2.453125 -4.640625 L 2.453125 0 L 1.140625 0 L 1.140625 -10.71875 L 4.484375 -10.71875 C 5.585938 -10.71875 6.421875 -10.457031 6.984375 -9.9375 C 7.554688 -9.425781 7.84375 -8.691406 7.84375 -7.734375 Z M 2.453125 -9.5625 L 2.453125 -5.78125 L 4.484375 -5.78125 C 5.179688 -5.78125 5.695312 -5.925781 6.03125 -6.21875 C 6.363281 -6.507812 6.53125 -7.003906 6.53125 -7.703125 C 6.53125 -8.941406 5.847656 -9.5625 4.484375 -9.5625 Z M 2.453125 -9.5625 "/></g></g><g style="fill:#010768;fill-opacity:1;"><g transform="translate(216.794718, 239.391184)"><path style="stroke:none" d="M 9.5625 -3.046875 C 9.414062 -2.441406 9.203125 -1.9375 8.921875 -1.53125 C 8.648438 -1.125 8.328125 -0.796875 7.953125 -0.546875 C 7.585938 -0.296875 7.179688 -0.113281 6.734375 0 C 6.296875 0.101562 5.835938 0.15625 5.359375 0.15625 C 4.742188 0.15625 4.164062 0.0664062 3.625 -0.109375 C 3.082031 -0.285156 2.613281 -0.585938 2.21875 -1.015625 C 1.820312 -1.441406 1.503906 -2.003906 1.265625 -2.703125 C 1.035156 -3.410156 0.921875 -4.289062 0.921875 -5.34375 C 0.921875 -6.394531 1.035156 -7.269531 1.265625 -7.96875 C 1.503906 -8.675781 1.820312 -9.242188 2.21875 -9.671875 C 2.613281 -10.109375 3.082031 -10.414062 3.625 -10.59375 C 4.164062 -10.78125 4.742188 -10.875 5.359375 -10.875 C 5.828125 -10.875 6.269531 -10.820312 6.6875 -10.71875 C 7.113281 -10.625 7.503906 -10.460938 7.859375 -10.234375 C 8.222656 -10.003906 8.546875 -9.703125 8.828125 -9.328125 C 9.109375 -8.960938 9.332031 -8.503906 9.5 -7.953125 L 8.265625 -7.53125 C 8.148438 -7.957031 7.992188 -8.3125 7.796875 -8.59375 C 7.597656 -8.875 7.367188 -9.097656 7.109375 -9.265625 C 6.859375 -9.441406 6.582031 -9.5625 6.28125 -9.625 C 5.988281 -9.6875 5.679688 -9.71875 5.359375 -9.71875 C 4.929688 -9.71875 4.523438 -9.648438 4.140625 -9.515625 C 3.753906 -9.390625 3.414062 -9.15625 3.125 -8.8125 C 2.84375 -8.476562 2.617188 -8.03125 2.453125 -7.46875 C 2.296875 -6.90625 2.21875 -6.195312 2.21875 -5.34375 C 2.21875 -4.488281 2.296875 -3.78125 2.453125 -3.21875 C 2.617188 -2.65625 2.84375 -2.207031 3.125 -1.875 C 3.414062 -1.539062 3.753906 -1.3125 4.140625 -1.1875 C 4.523438 -1.0625 4.929688 -1 5.359375 -1 C 5.691406 -1 6.007812 -1.035156 6.3125 -1.109375 C 6.625 -1.179688 6.910156 -1.3125 7.171875 -1.5 C 7.429688 -1.6875 7.65625 -1.929688 7.84375 -2.234375 C 8.039062 -2.535156 8.195312 -2.925781 8.3125 -3.40625 Z M 9.5625 -3.046875 "/></g></g><g style="fill:#010768;fill-opacity:1;"><g transform="translate(227.356519, 239.391184)"><path style="stroke:none" d="M 2.453125 -4.796875 L 2.453125 -1.140625 L 7.65625 -1.140625 L 7.65625 0 L 1.140625 0 L 1.140625 -10.71875 L 7.5 -10.71875 L 7.5 -9.5625 L 2.453125 -9.5625 L 2.453125 -5.9375 L 7.265625 -5.9375 L 7.265625 -4.796875 Z M 2.453125 -4.796875 "/></g></g></g></svg>